<?xml version="1.0" encoding="UTF-8"?>
<svg version="1.1" xmlns="http://www.w3.org/2000/svg" width="500" height="500">
<path d="M0 0 C1.1528608 -0.00297112 2.3057216 -0.00594224 3.49351758 -0.0090034 C6.68519666 -0.01616646 9.87684288 -0.01886139 13.06852877 -0.01960087 C16.51459452 -0.02145652 19.96064873 -0.02900666 23.40670776 -0.03573608 C30.9403099 -0.04930204 38.47390669 -0.05534208 46.00751901 -0.05974674 C50.71772324 -0.06251342 55.42792543 -0.06675168 60.13812828 -0.07125092 C73.19545646 -0.08344381 86.25278302 -0.09374146 99.31011677 -0.09712601 C100.56308824 -0.09745536 100.56308824 -0.09745536 101.84137226 -0.09779136 C102.67862608 -0.09800964 103.5158799 -0.09822791 104.37850505 -0.09845281 C106.07494311 -0.09889626 107.77138116 -0.09934283 109.46781921 -0.09979248 C110.73004268 -0.10012463 110.73004268 -0.10012463 112.0177656 -0.10046348 C125.6308956 -0.10440541 139.24397188 -0.12184085 152.85708115 -0.145152 C166.85481892 -0.16892686 180.85252982 -0.18133073 194.85028809 -0.18249393 C202.70071125 -0.18340751 210.55106449 -0.1890792 218.40146828 -0.20731354 C225.09130659 -0.2227979 231.78105339 -0.22778646 238.47090624 -0.21957543 C241.87763752 -0.21569744 245.28403688 -0.21812526 248.6907692 -0.23063278 C282.75330905 -0.34828714 282.75330905 -0.34828714 298.61112976 6.14044189 C299.65720398 6.55229736 299.65720398 6.55229736 300.72441101 6.97247314 C307.2993103 9.71688049 313.73840085 13.10604606 319.61112976 17.14044189 C319.61112976 17.80044189 319.61112976 18.46044189 319.61112976 19.14044189 C320.17316101 19.38923096 320.73519226 19.63802002 321.31425476 19.89434814 C336.02692083 27.8762197 346.19324559 45.83431172 351.61112976 61.14044189 C352.02685242 62.20391846 352.02685242 62.20391846 352.45097351 63.28887939 C358.24212978 79.71156135 356.89850842 98.94032754 356.85404968 116.07110596 C356.85512541 118.50799104 356.85706839 120.94487586 356.85980225 123.38175964 C356.86411165 129.2639261 356.85926777 135.1460408 356.84995195 141.02819738 C356.83945466 147.90957639 356.83964114 154.79094377 356.84012453 161.67232928 C356.84062301 173.97144509 356.83152345 186.27053474 356.81694031 198.56964111 C356.80286968 210.44301836 356.79576923 222.3163726 356.7964325 234.1897583 C356.79647245 234.92067004 356.79651241 235.65158179 356.79655357 236.40464237 C356.79659393 237.13441854 356.79663428 237.8641947 356.79667586 238.61608529 C356.79737008 252.21698182 356.79144923 265.81786877 356.78252264 279.41876216 C356.77953604 284.18919147 356.77844665 288.95961899 356.77799034 293.73004913 C356.77697451 300.18169748 356.77077856 306.63332231 356.7608242 313.08496284 C356.75794078 315.43245614 356.75666521 317.77995214 356.75725174 320.12744713 C356.75906169 331.79684571 356.63700226 343.44507338 356.16455078 355.10595703 C356.10653692 356.55054287 356.10653692 356.55054287 356.04735106 358.02431226 C355.04237393 380.42300819 349.02086468 400.25929131 333.61112976 417.14044189 C333.17284851 417.62110107 332.73456726 418.10176025 332.28300476 418.59698486 C317.50572707 434.59724467 299.13809958 444.65347623 277.61112976 448.14044189 C276.82925053 448.31247973 276.0473713 448.48451757 275.24179876 448.66176867 C272.63042242 449.13693143 270.25379578 449.26799384 267.60245705 449.27186966 C266.61246794 449.2757108 265.62247884 449.27955195 264.60249007 449.28350949 C263.52225675 449.28264301 262.44202344 449.28177653 261.32905579 449.28088379 C259.59892953 449.28534047 259.59892953 449.28534047 257.83385122 449.28988719 C254.63605159 449.29705835 251.43828472 449.29974581 248.24047828 449.30048466 C244.78966151 449.30233833 241.33885632 449.30988747 237.88804626 449.31661987 C230.3421229 449.33019371 222.79620486 449.33622706 215.25027132 449.34063053 C210.53389022 449.3433958 205.81751116 449.34763379 201.10113144 449.3521347 C188.0309722 449.36432847 174.9608146 449.37462605 161.8906498 449.3780098 C161.05429724 449.37822936 160.21794468 449.37844893 159.3562481 449.37867515 C158.09877884 449.37900256 158.09877884 449.37900256 156.81590617 449.3793366 C155.11727627 449.37978005 153.41864637 449.38022662 151.72001648 449.38067627 C150.45615783 449.38100841 150.45615783 449.38100841 149.16676669 449.38134727 C135.53282245 449.38529008 121.89893183 449.40272779 108.26500829 449.42603579 C94.25149166 449.44979824 80.23800186 449.46221395 66.22446477 449.46337771 C58.36291228 449.46429198 50.50142957 449.46998096 42.63989639 449.48819733 C35.94119322 449.50366482 29.24258138 449.50868001 22.54386373 449.50045922 C19.13131155 449.4965754 15.71909107 449.49903083 12.30653763 449.51151657 C-13.80927437 449.60142387 -13.80927437 449.60142387 -26.38887024 446.14044189 C-27.51813714 445.86038237 -27.51813714 445.86038237 -28.67021751 445.57466507 C-44.25782447 441.51536253 -58.00643409 432.38126142 -69.38887024 421.14044189 C-70.74433899 418.81622314 -70.74433899 418.81622314 -71.38887024 417.14044189 C-72.04887024 417.14044189 -72.70887024 417.14044189 -73.38887024 417.14044189 C-88.92705957 399.86172219 -95.73845151 377.84479521 -95.64283752 354.92047119 C-95.64595751 353.75078891 -95.64907749 352.58110662 -95.65229201 351.37597942 C-95.6588375 348.16535618 -95.65655189 344.95488706 -95.65031958 341.74426794 C-95.64576276 338.26772635 -95.65279474 334.79120435 -95.65827942 331.31466675 C-95.66714083 324.5183514 -95.66526597 317.7220804 -95.65945414 310.92576337 C-95.6549248 305.39887966 -95.65433023 299.87200832 -95.65650177 294.34512329 C-95.65680824 293.55646053 -95.6571147 292.76779777 -95.65743046 291.95523614 C-95.65806995 290.35274132 -95.65871838 288.7502465 -95.65937564 287.14775169 C-95.6650694 272.14522544 -95.65853603 257.14272368 -95.6477749 242.14020145 C-95.63884026 229.28642819 -95.64039257 216.43269106 -95.64961243 203.57891846 C-95.66033193 188.62756792 -95.66452017 173.67623883 -95.6583879 158.72488499 C-95.65775085 157.12851016 -95.6571221 155.53213533 -95.65650177 153.9357605 C-95.65619322 153.15045336 -95.65588467 152.36514622 -95.65556677 151.5560419 C-95.65384486 146.04017379 -95.65674401 140.52431936 -95.66146088 135.00845337 C-95.66708841 128.28019819 -95.66551406 121.55198965 -95.65489939 114.82373977 C-95.64966778 111.39539256 -95.64754274 107.96712291 -95.65419769 104.5387764 C-95.65968799 100.81257855 -95.65277666 97.0865968 -95.64283752 93.3604126 C-95.64729897 92.29074092 -95.65176041 91.22106924 -95.65635705 90.11898327 C-95.53907131 67.34446959 -87.53509912 47.08784394 -72.38887024 30.14044189 C-71.60125305 29.24712158 -70.81363586 28.35380127 -70.00215149 27.43341064 C-55.65743873 12.10236487 -37.83664739 4.36674362 -17.38887024 1.14044189 C-16.5581944 0.96641468 -15.72751856 0.79238747 -14.87167072 0.6130867 C-9.90985865 -0.0602722 -5.00183318 -0.00402804 0 0 Z M152.61112976 271.14044189 C152.61112976 271.80044189 152.61112976 272.46044189 152.61112976 273.14044189 C151.95112976 273.14044189 151.29112976 273.14044189 150.61112976 273.14044189 C150.61112976 273.80044189 150.61112976 274.46044189 150.61112976 275.14044189 C149.95112976 275.14044189 149.29112976 275.14044189 148.61112976 275.14044189 C146.94446309 276.47377523 146.94446309 276.47377523 145.61112976 278.14044189 C145.61112976 278.80044189 145.61112976 279.46044189 145.61112976 280.14044189 C144.95112976 280.14044189 144.29112976 280.14044189 143.61112976 280.14044189 C143.61112976 280.80044189 143.61112976 281.46044189 143.61112976 282.14044189 C142.95112976 282.14044189 142.29112976 282.14044189 141.61112976 282.14044189 C140.23912549 283.53254974 140.23912549 283.53254974 138.86112976 285.32794189 C136.0319505 288.74911486 133.05916256 291.35267069 129.61112976 294.14044189 C128.31175476 295.47075439 128.31175476 295.47075439 126.98612976 296.82794189 C124.83727221 298.92025056 123.27578219 299.90930501 120.61112976 301.14044189 C120.12902039 300.63512939 119.64691101 300.12981689 119.15019226 299.60919189 C118.51855164 298.95950439 117.88691101 298.30981689 117.23612976 297.64044189 C116.60964539 296.99075439 115.98316101 296.34106689 115.33769226 295.67169189 C113.74637069 293.91926759 113.74637069 293.91926759 111.61112976 294.14044189 C111.61112976 293.48044189 111.61112976 292.82044189 111.61112976 292.14044189 C110.95112976 292.14044189 110.29112976 292.14044189 109.61112976 292.14044189 C109.61112976 291.48044189 109.61112976 290.82044189 109.61112976 290.14044189 C108.95112976 290.14044189 108.29112976 290.14044189 107.61112976 290.14044189 C107.61112976 289.48044189 107.61112976 288.82044189 107.61112976 288.14044189 C104.36959811 285.97942079 103.37420075 285.49796636 99.61112976 286.14044189 C97.01991072 288.15027759 97.01991072 288.15027759 95.61112976 291.14044189 C96.34605548 296.17993251 98.79896516 298.90010199 102.61112976 302.14044189 C103.27112976 302.14044189 103.93112976 302.14044189 104.61112976 302.14044189 C104.61112976 302.80044189 104.61112976 303.46044189 104.61112976 304.14044189 C105.27112976 304.14044189 105.93112976 304.14044189 106.61112976 304.14044189 C106.61112976 304.80044189 106.61112976 305.46044189 106.61112976 306.14044189 C108.26273757 307.81124471 108.26273757 307.81124471 110.36112976 309.51544189 C112.68514886 311.46843338 114.73678622 313.28457725 116.73612976 315.57794189 C118.58292068 317.35960478 118.58292068 317.35960478 121.42362976 317.76544189 C125.85657028 316.89623787 128.65786312 314.51310735 131.61112976 311.14044189 C131.61112976 310.48044189 131.61112976 309.82044189 131.61112976 309.14044189 C132.16800476 308.91356689 132.72487976 308.68669189 133.29862976 308.45294189 C136.27272564 306.76494153 138.33121841 304.67367673 140.61112976 302.14044189 C140.61112976 301.48044189 140.61112976 300.82044189 140.61112976 300.14044189 C141.20925476 299.87231689 141.80737976 299.60419189 142.42362976 299.32794189 C144.6096083 298.14126783 146.0244557 297.04445077 147.61112976 295.14044189 C147.61112976 294.48044189 147.61112976 293.82044189 147.61112976 293.14044189 C148.27112976 293.14044189 148.93112976 293.14044189 149.61112976 293.14044189 C149.61112976 292.48044189 149.61112976 291.82044189 149.61112976 291.14044189 C150.27112976 291.14044189 150.93112976 291.14044189 151.61112976 291.14044189 C151.61112976 290.48044189 151.61112976 289.82044189 151.61112976 289.14044189 C152.60112976 288.81044189 153.59112976 288.48044189 154.61112976 288.14044189 C154.61112976 287.48044189 154.61112976 286.82044189 154.61112976 286.14044189 C155.27112976 286.14044189 155.93112976 286.14044189 156.61112976 286.14044189 C156.61112976 285.48044189 156.61112976 284.82044189 156.61112976 284.14044189 C157.25050476 283.87231689 157.88987976 283.60419189 158.54862976 283.32794189 C160.94244662 282.25376437 160.94244662 282.25376437 161.61112976 279.14044189 C162.27112976 279.14044189 162.93112976 279.14044189 163.61112976 279.14044189 C163.61112976 278.48044189 163.61112976 277.82044189 163.61112976 277.14044189 C164.27112976 277.14044189 164.93112976 277.14044189 165.61112976 277.14044189 C166.27112976 275.16044189 166.93112976 273.18044189 167.61112976 271.14044189 C165.36154642 268.5571096 165.36154642 268.5571096 162.61112976 266.14044189 C157.28486287 266.14044189 156.36900876 267.55337558 152.61112976 271.14044189 Z " fill="#12192C" transform="translate(119.38887023925781,21.85955810546875)"/>
<path d="M0 0 C1.93361641 -0.00043808 1.93361641 -0.00043808 3.90629578 -0.00088501 C7.40559017 -0.00145366 10.90474457 0.01022066 14.40400672 0.02426291 C18.0741654 0.0368525 21.74432806 0.0379472 25.414505 0.04031372 C32.34861567 0.04650449 39.28266251 0.06288243 46.2167452 0.0830127 C54.11768738 0.10544694 62.01863278 0.11638397 69.91959894 0.12640357 C86.15778093 0.14725107 102.39589889 0.18237979 118.6340332 0.22705078 C118.8014721 15.54770986 112.54822399 28.80424742 102.14648438 39.94018555 C90.49272722 51.7256017 75.87595169 56.56860261 59.56877041 56.72988129 C58.15546557 56.73003008 56.74214899 56.72427167 55.32888985 56.71290588 C53.06935216 56.69526531 50.81105144 56.70334595 48.55149841 56.71716309 C43.76641953 56.74217553 38.98165047 56.73704914 34.1965332 56.72705078 C28.61802825 56.71546003 23.04014152 56.71680547 17.46171379 56.75111389 C15.25019851 56.75814263 13.03969718 56.74163091 10.82826233 56.72399902 C2.17029171 56.72624684 -4.14044934 57.22993967 -10.6784668 63.41455078 C-15.15457679 70.8747341 -15.91680965 78.6316627 -16.39331055 87.17236328 C-16.54751105 89.49007803 -16.70181109 91.80778615 -16.85620117 94.12548828 C-17.08191412 97.73200457 -17.3026666 101.33877125 -17.52001953 104.94580078 C-20.1053599 147.0029766 -20.1053599 147.0029766 -36.3659668 162.22705078 C-50.27006275 173.77285484 -64.68941688 177.64087241 -82.3659668 177.22705078 C-81.81510969 161.10829111 -79.75917617 145.12044551 -77.88772964 129.11494064 C-77.42975736 125.19621479 -76.97465992 121.27715457 -76.51904297 117.3581543 C-75.97407201 112.67186211 -75.42847758 107.98564606 -74.8802948 103.29972839 C-73.96661156 95.47871782 -73.07414624 87.65635848 -72.23214722 79.82722473 C-71.81702328 75.96881483 -71.39001991 72.11177253 -70.96130371 68.25485229 C-70.77593611 66.55720268 -70.59643997 64.85889935 -70.42346191 63.15994263 C-68.50333375 44.35293044 -62.32850818 26.65194514 -47.3659668 14.22705078 C-32.73770138 3.33834194 -17.9453154 -0.10800316 0 0 Z " fill="#4A68F7" transform="translate(210.365966796875,207.77294921875)"/>
<path d="M0 0 C1.8247018 0.00084814 3.64940462 0.00036749 5.47410583 -0.00132751 C10.38436899 -0.0021816 15.29440834 0.01534815 20.20461988 0.03639436 C25.35219124 0.05525995 30.49976879 0.05691934 35.64736938 0.06047058 C45.37571837 0.06976219 55.10396515 0.0943366 64.83226931 0.12451905 C75.91580276 0.15815328 86.99934131 0.17457168 98.08291316 0.18960536 C120.86473946 0.22088897 143.64647531 0.27359287 166.42822266 0.34057617 C166.13067196 2.41591603 165.82699488 4.4903781 165.52075195 6.56445312 C165.26807808 8.29741386 165.26807808 8.29741386 165.01029968 10.06538391 C164.27622932 14.19580213 163.02318289 17.75141743 161.24072266 21.52807617 C160.93175049 22.20241699 160.62277832 22.87675781 160.30444336 23.5715332 C152.59303984 39.91008164 140.33258568 51.5116729 123.74462891 58.46557617 C117.82375984 60.54237342 111.96113539 61.46207098 105.68251038 61.47860718 C103.9987883 61.48678719 103.9987883 61.48678719 102.28105164 61.49513245 C101.06383926 61.49617477 99.84662689 61.4972171 98.5925293 61.49829102 C96.60677949 61.50609073 94.62102969 61.51389448 92.63528049 61.52184892 C90.50714555 61.52954451 88.37901484 61.53493784 86.25087166 61.53980637 C81.7977778 61.55054287 77.34475842 61.57080551 72.89170837 61.59292603 C60.23065639 61.65465127 47.56960854 61.70871862 34.90844727 61.74194336 C27.91055154 61.7603868 20.91278072 61.78944605 13.91497701 61.82994807 C10.22069716 61.85086238 6.52657366 61.86645286 2.83223152 61.86875534 C-1.30252949 61.87133535 -5.43686012 61.89696002 -9.5715332 61.92407227 C-10.7705275 61.92106613 -11.96952179 61.91806 -13.20484924 61.91496277 C-31.52533103 62.09201302 -48.17646431 66.45741203 -61.65771484 79.33276367 C-67.32983875 85.26567489 -70.94855685 92.02558777 -74.57177734 99.34057617 C-75.23802627 100.6741183 -75.90460936 102.00749361 -76.57177734 103.34057617 C-76.64676487 97.47309054 -76.70076937 91.60589293 -76.73657227 85.73803711 C-76.75152106 83.74807873 -76.77188755 81.75815249 -76.7980957 79.76831055 C-77.08041882 57.75817893 -74.29635427 36.18850238 -58.25927734 19.52807617 C-41.19041393 3.55670313 -22.56608001 -0.14855677 0 0 Z " fill="#35ABF7" transform="translate(218.57177734375,120.659423828125)"/>
<path d="M0 0 C0 0.66 0 1.32 0 2 C-1.051875 2.37125 -1.051875 2.37125 -2.125 2.75 C-6.24991314 4.5434405 -9.8156188 6.8156188 -13 10 C-17.58823529 14 -17.58823529 14 -21 14 C-20.67 15.98 -20.34 17.96 -20 20 C-20.66 20 -21.32 20 -22 20 C-22 19.34 -22 18.68 -22 18 C-26.23135292 20.18317402 -26.23135292 20.18317402 -28.5625 24 C-28.706875 24.66 -28.85125 25.32 -29 26 C-29.804375 26.639375 -30.60875 27.27875 -31.4375 27.9375 C-34.20888019 30.16812308 -34.97727833 31.6529109 -36 35 C-35.34 35.33 -34.68 35.66 -34 36 C-34 36.66 -34 37.32 -34 38 C-34.66 38 -35.32 38 -36 38 C-36 39.65 -36 41.3 -36 43 C-36.99 43.495 -36.99 43.495 -38 44 C-38.495 42.515 -38.495 42.515 -39 41 C-41.61488063 47.59931636 -42.50924671 53.55598392 -42.6875 60.625 C-42.72166016 61.52734375 -42.75582031 62.4296875 -42.79101562 63.359375 C-42.96537123 68.24133196 -43.03345697 73.11528191 -43 78 C-43.66 78 -44.32 78 -45 78 C-45 78.66 -45 79.32 -45 80 C-43.02 79.505 -43.02 79.505 -41 79 C-41 78.01 -41 77.02 -41 76 C-40.34 76 -39.68 76 -39 76 C-39 76.66 -39 77.32 -39 78 C-36.82961523 77.20700294 -36.82961523 77.20700294 -36.3671875 75.15234375 C-36.20476562 74.42144531 -36.04234375 73.69054687 -35.875 72.9375 C-35.70742187 72.20402344 -35.53984375 71.47054687 -35.3671875 70.71484375 C-35.24601563 70.14894531 -35.12484375 69.58304687 -35 69 C-32.37886292 69 -30.49064888 69.31292445 -28 70 C-27.855625 69.236875 -27.71125 68.47375 -27.5625 67.6875 C-27 65 -27 65 -26 62 C-26.66 62 -27.32 62 -28 62 C-28 61.34 -28 60.68 -28 60 C-26.68 60.66 -25.36 61.32 -24 62 C-23.67 61.67 -23.34 61.34 -23 61 C-21 61 -19 61 -17 61 C-15.32805207 60.69425664 -13.66154607 60.35798541 -12 60 C-5.56559528 58.68234163 0.42281358 57.75180429 7 58 C7 58.33 7 58.66 7 59 C6.05640625 59.15855469 5.1128125 59.31710938 4.140625 59.48046875 C-12.91043871 62.57910583 -26.44805293 68.69481973 -37 83 C-39.53137161 87.24054575 -41.80857177 91.57568409 -44 96 C-44.66624892 97.33354212 -45.33283202 98.66691744 -46 100 C-46.07498753 94.13251437 -46.12899203 88.26531675 -46.16479492 82.39746094 C-46.17974372 80.40750256 -46.2001102 78.41757632 -46.22631836 76.42773438 C-46.50864148 54.41760276 -43.72457693 32.84792621 -27.6875 16.1875 C-20.90533819 9.84141627 -9.8425508 0 0 0 Z M-38 38 C-37 40 -37 40 -37 40 Z M-19 62 C-18 64 -18 64 -18 64 Z " fill="#2E79DA" transform="translate(188,124)"/>
<path d="M0 0 C0.33 0 0.66 0 1 0 C1.18741152 9.04260581 0.58615679 18.00641128 -0.06201172 27.02026367 C-0.18667487 28.78902334 -0.3049099 30.55824857 -0.41650391 32.32788086 C-1.61798821 51.36910331 -4.32789328 70.26316702 -19 84 C-32.90409595 95.54580406 -47.32345008 99.41382163 -65 99 C-64.43925947 87.61678355 -63.48471137 76.34469407 -62.15234375 65.02734375 C-61.97399846 63.48227107 -61.79607438 61.93714973 -61.61854553 60.39198303 C-61.15747354 56.388618 -60.69081004 52.38592549 -60.22283936 48.38336182 C-59.74338078 44.27355568 -59.26940587 40.16311726 -58.79492188 36.05273438 C-57.86854293 28.0345398 -56.93623562 20.01704963 -56 12 C-55.67 12 -55.34 12 -55 12 C-54.80602524 13.97854258 -54.61998679 15.9578648 -54.4375 17.9375 C-54.33308594 19.03964844 -54.22867188 20.14179688 -54.12109375 21.27734375 C-54.08113281 22.17582031 -54.04117188 23.07429688 -54 24 C-54.33 24.33 -54.66 24.66 -55 25 C-55.03193463 28.27101896 -54.93138184 31.5310408 -54.83984375 34.80078125 C-55 38 -55 38 -56.00390625 39.984375 C-57.91096941 43.8433734 -57.01911837 48.37888511 -56.875 52.58984375 C-56.99811794 55.94865496 -57.6736078 57.96521465 -59 61 C-58.70480232 63.7336432 -58.70480232 63.7336432 -58 66 C-58.66 66 -59.32 66 -60 66 C-59.79375 67.2375 -59.5875 68.475 -59.375 69.75 C-58.74470339 73.53177966 -58.74470339 73.53177966 -59.94140625 75.7265625 C-61.57561736 79.2361967 -61.43080685 82.79626252 -61.5625 86.625 C-61.88006757 94.76013514 -61.88006757 94.76013514 -63 97 C-62.360625 96.835 -61.72125 96.67 -61.0625 96.5 C-57.70082961 95.95115586 -54.5557886 95.98589932 -51.16015625 96.03125 C-48.68040281 95.99537653 -46.3994876 95.61922261 -44 95 C-43.505 93.515 -43.505 93.515 -43 92 C-42.2575 92.04125 -41.515 92.0825 -40.75 92.125 C-37.86467775 91.99384899 -36.37466663 91.61138093 -34 90 C-32.84188612 87.05270463 -32.84188612 87.05270463 -33 84 C-31.7934375 83.7834375 -31.7934375 83.7834375 -30.5625 83.5625 C-28.07896294 83.25864751 -28.07896294 83.25864751 -27 82 C-25.48530552 81.76807135 -23.96245438 81.58784762 -22.4375 81.4375 C-21.19806641 81.31181641 -21.19806641 81.31181641 -19.93359375 81.18359375 C-19.29550781 81.12300781 -18.65742188 81.06242187 -18 81 C-17.9175 80.0925 -17.835 79.185 -17.75 78.25 C-16.90305826 74.57991912 -15.92092737 73.30133672 -13 71 C-12.34 71 -11.68 71 -11 71 C-11.33 69.35 -11.66 67.7 -12 66 C-10.68 66 -9.36 66 -8 66 C-8.061875 65.34 -8.12375 64.68 -8.1875 64 C-8.01427911 61.22846582 -7.58449157 59.70278993 -6.5625 57.1875 C-4.91517926 53.10805005 -4.39045175 49.37305955 -4 45 C-4.66 45 -5.32 45 -6 45 C-6 44.01 -6 43.02 -6 42 C-5.34 42 -4.68 42 -4 42 C-4.020625 40.88625 -4.04125 39.7725 -4.0625 38.625 C-4 35 -4 35 -3 33 C-2.78638135 30.60847248 -2.6237448 28.23625664 -2.5 25.83984375 C-2.4390918 24.78223595 -2.4390918 24.78223595 -2.37695312 23.70326233 C-2.20300231 20.68168236 -2.03924222 17.65957212 -1.875 14.63745117 C-1.75377475 12.43385069 -1.62705994 10.23061423 -1.5 8.02734375 C-1.46455078 7.33881821 -1.42910156 6.65029266 -1.39257812 5.94090271 C-1.11286761 1.11286761 -1.11286761 1.11286761 0 0 Z " fill="#6E52D7" transform="translate(193,286)"/>
<path d="M0 0 C18.81 0 37.62 0 57 0 C54.67272576 15.12728255 54.67272576 15.12728255 51.8125 21.1875 C51.50352783 21.86184082 51.19455566 22.53618164 50.8762207 23.23095703 C43.16481718 39.56950547 30.90436302 51.17109673 14.31640625 58.125 C8.2473024 60.25379191 2.28373196 61.12590838 -4.15036011 61.12025452 C-5.36183212 61.12162918 -6.57330414 61.12300385 -7.82148743 61.12442017 C-9.79486336 61.11902725 -9.79486336 61.11902725 -11.80810547 61.11352539 C-13.21783954 61.11324309 -14.62757375 61.11340209 -16.03730774 61.1139679 C-19.85295941 61.1142542 -23.6685795 61.10838435 -27.48422384 61.10139394 C-31.47606336 61.09513272 -35.46790364 61.09455441 -39.45974731 61.09336853 C-47.01378029 61.09026337 -54.56779875 61.08206098 -62.12182534 61.07201904 C-70.72397535 61.06083257 -79.32612607 61.05534107 -87.92828155 61.05032361 C-105.61886258 61.03987769 -123.30943012 61.02229404 -141 61 C-137.62629961 58.75086641 -136.53860296 58.75502526 -132.59486389 58.77294922 C-130.91082458 58.77316071 -130.91082458 58.77316071 -129.19276428 58.77337646 C-127.96005295 58.78370911 -126.72734161 58.79404175 -125.45727539 58.8046875 C-123.46481194 58.80917096 -121.47234848 58.81365384 -119.47988498 58.81811523 C-117.3359354 58.8248615 -115.1920631 58.83657237 -113.04814339 58.84967041 C-108.57095869 58.87673421 -104.09381366 58.88850946 -99.61656189 58.89794922 C-89.29225495 58.92204747 -78.96805016 58.96598605 -68.64381409 59.01040649 C-59.20472016 59.05086154 -49.76566263 59.08700986 -40.32649988 59.10683632 C-35.88654492 59.11673906 -31.44677649 59.13636803 -27.00689614 59.16369629 C-24.900617 59.17510276 -22.79438394 59.18179985 -20.68807983 59.1864624 C-18.13435538 59.19213983 -15.58063115 59.20489774 -13.0269928 59.22662354 C-3.04210527 59.22784975 6.4720621 58.0316166 16 55 C16 53.68 16 52.36 16 51 C17.32 51.33 18.64 51.66 20 52 C20.37125 51.0409375 20.37125 51.0409375 20.75 50.0625 C22 48 22 48 23.875 47.3125 C24.57625 47.209375 25.2775 47.10625 26 47 C28.94858104 46.3929392 29.79947406 46.20052594 32 44 C32.2475 43.34 32.495 42.68 32.75 42 C34 40 34 40 37.0625 39 C38.031875 38.67 39.00125 38.34 40 38 C41.406617 35.09299153 41.04092665 34.12277995 40 31 C39.75 27.9375 39.75 27.9375 40 25 C42.91765 23.0549 44.62537285 22.54723683 48 22 C48.66 19.69 49.32 17.38 50 15 C50.66 15 51.32 15 52 15 C51.814375 14.236875 51.62875 13.47375 51.4375 12.6875 C51 10 51 10 52 7 C52.66 6.67 53.32 6.34 54 6 C54 5.01 54 4.02 54 3 C52.78376953 3.01740234 52.78376953 3.01740234 51.54296875 3.03515625 C50.43566406 3.04417969 49.32835937 3.05320312 48.1875 3.0625 C47.10855469 3.07410156 46.02960938 3.08570312 44.91796875 3.09765625 C41.90788455 3.02262923 39.02023077 2.82995285 36.03125 2.53125 C28.80493112 1.83332718 21.56617547 1.65015412 14.3125 1.4375 C12.91730839 1.39417913 11.52212598 1.35056122 10.12695312 1.30664062 C6.7513804 1.20151898 3.37574607 1.09937123 0 1 C0 0.67 0 0.34 0 0 Z " fill="#60CDDF" transform="translate(328,121)"/>
<path d="M0 0 C1.12795361 -0.00339833 1.12795361 -0.00339833 2.27869415 -0.00686532 C4.79974399 -0.01319818 7.32073996 -0.01237642 9.84179688 -0.0115509 C11.64868235 -0.01454279 13.45556718 -0.01794538 15.26245117 -0.02172852 C20.17142065 -0.03056842 25.0803727 -0.03290659 29.98934937 -0.0335443 C34.08499588 -0.03449337 38.18063832 -0.03817154 42.27628326 -0.0417164 C51.93614406 -0.04986045 61.59599554 -0.05230063 71.25585938 -0.05158997 C81.22834745 -0.05098875 91.20078152 -0.06154945 101.17325592 -0.07733363 C109.73044337 -0.09039624 118.28761314 -0.09577442 126.84481049 -0.09513456 C131.95783893 -0.09487925 137.07081935 -0.09774859 142.18383789 -0.10831261 C146.99039692 -0.11797241 151.79686178 -0.11808737 156.60342407 -0.11079597 C158.3691115 -0.10974758 160.13480473 -0.11212804 161.90048218 -0.11815643 C164.30746445 -0.1258433 166.71411883 -0.12125368 169.12109375 -0.11352539 C170.17342571 -0.12124074 170.17342571 -0.12124074 171.24701691 -0.12911195 C174.85519341 -0.10344334 177.48949548 0.16398703 180.56054688 2.13371277 C179.90054688 3.45371277 179.24054688 4.77371277 178.56054688 6.13371277 C177.57054687 4.15371277 177.57054687 4.15371277 176.56054688 2.13371277 C113.20054687 2.46371277 49.84054687 2.79371277 -15.43945312 3.13371277 C-10.02561456 0.42679349 -5.99737993 -0.01323853 0 0 Z " fill="#02273F" transform="translate(208.439453125,118.86628723144531)"/>
<path d="M0 0 C43.56 0 87.12 0 132 0 C132 16.52481853 125.09147046 29.73726915 113.76171875 41.3828125 C105.7238806 49 105.7238806 49 101 49 C101 48.34 101 47.68 101 47 C101.66 47 102.32 47 103 47 C103.28875 46.38125 103.5775 45.7625 103.875 45.125 C105.64635625 41.77910487 106.80292396 41.06808082 110.4375 39.8125 C114.27200554 37.86347494 114.27200554 37.86347494 115.9375 34.3125 C116.288125 33.219375 116.63875 32.12625 117 31 C117.66 31 118.32 31 119 31 C119.103125 30.38125 119.20625 29.7625 119.3125 29.125 C120 27 120 27 123 25 C122.979375 24.05125 122.95875 23.1025 122.9375 22.125 C123 19 123 19 124.9375 16.9375 C125.618125 16.298125 126.29875 15.65875 127 15 C127.79681318 12.35815459 127.79681318 12.35815459 128 10 C128.66 10 129.32 10 130 10 C130 7.03 130 4.06 130 1 C129.09426743 1.16455185 128.18853485 1.3291037 127.25535583 1.49864197 C121.82452479 2.26738931 116.38668799 2.08470378 110.91430664 2.02172852 C109.11323959 2.0073172 109.11323959 2.0073172 107.27578735 1.99261475 C104.00146251 1.96538633 100.7272241 1.93348467 97.45296407 1.89946485 C94.02437546 1.8649599 90.59573675 1.83648527 87.167099 1.80735779 C80.68262492 1.75136033 74.19821357 1.6899774 67.71380752 1.62663645 C60.32809087 1.55475527 52.94232419 1.48891305 45.55654728 1.42356598 C30.37096654 1.28907399 15.18546484 1.14703756 0 1 C0 0.67 0 0.34 0 0 Z " fill="#5085E5" transform="translate(197,208)"/>
<path d="M0 0 C1.2065625 0.0309375 1.2065625 0.0309375 2.4375 0.0625 C-0.98043326 2.99393911 -4.14965743 4.98051429 -8.3125 6.6875 C-9.27671875 7.09226563 -10.2409375 7.49703125 -11.234375 7.9140625 C-20.1756908 10.99944612 -28.31876771 11.341311 -37.71118164 11.28955078 C-39.12135815 11.28898567 -40.53153525 11.28930518 -41.94171143 11.29043579 C-45.74482861 11.2910064 -49.547818 11.2792997 -53.35090566 11.26528788 C-57.3347147 11.25273155 -61.31852712 11.25160617 -65.30235291 11.24923706 C-72.83505748 11.24303664 -80.36770357 11.2266454 -87.90038246 11.20653808 C-96.4808308 11.18413419 -105.06128202 11.17317439 -113.64175236 11.16314721 C-131.28203466 11.1422778 -148.92226261 11.10712996 -166.5625 11.0625 C-163.18879961 8.81336641 -162.10110296 8.81752526 -158.15736389 8.83544922 C-156.47332458 8.83566071 -156.47332458 8.83566071 -154.75526428 8.83587646 C-153.52255295 8.84620911 -152.28984161 8.85654175 -151.01977539 8.8671875 C-149.02731194 8.87167096 -147.03484848 8.87615384 -145.04238498 8.88061523 C-142.8984354 8.8873615 -140.7545631 8.89907237 -138.61064339 8.91217041 C-134.13345869 8.93923421 -129.65631366 8.95100946 -125.17906189 8.96044922 C-114.85475495 8.98454747 -104.53055016 9.02848605 -94.20631409 9.07290649 C-84.76722016 9.11336154 -75.32816263 9.14950986 -65.88899988 9.16933632 C-61.44904492 9.17923906 -57.00927649 9.19886803 -52.56939614 9.22619629 C-50.463117 9.23760276 -48.35688394 9.24429985 -46.25057983 9.2489624 C-43.69685538 9.25463983 -41.14313115 9.26739774 -38.5894928 9.28912354 C-28.60460527 9.29034975 -19.0904379 8.0941166 -9.5625 5.0625 C-9.5625 3.7425 -9.5625 2.4225 -9.5625 1.0625 C-8.1084375 1.0934375 -8.1084375 1.0934375 -6.625 1.125 C-3.22707532 1.0556546 -3.2165483 0.0784524 0 0 Z " fill="#4CB3E4" transform="translate(353.5625,170.9375)"/>
<path d="M0 0 C1.25006332 -0.00029205 2.50012665 -0.00058411 3.78807068 -0.00088501 C7.17997131 0.00026078 10.57162147 0.01021663 13.96347785 0.02426291 C17.52152741 0.03685677 21.07958113 0.03794753 24.63764954 0.04031372 C31.35926539 0.04650326 38.08081534 0.06287948 44.80240232 0.0830127 C52.46151084 0.10545083 60.12062269 0.11638493 67.77975595 0.12640357 C83.52028222 0.14724827 99.26074293 0.18237453 115.0012207 0.22705078 C115.0012207 0.55705078 115.0012207 0.88705078 115.0012207 1.22705078 C114.02634815 1.232016 114.02634815 1.232016 113.0317812 1.23708153 C97.21579012 1.31831216 81.39990519 1.41040479 65.58405018 1.51457787 C57.93561107 1.56469348 50.28718263 1.61113651 42.63867188 1.64892578 C35.97200588 1.68187334 29.30542286 1.72171982 22.63884848 1.76984084 C19.10915374 1.7950784 15.57951385 1.81686773 12.04975319 1.83039474 C8.1087525 1.84562704 4.16795323 1.87626206 0.22705078 1.90820312 C-0.94251663 1.91036331 -2.11208405 1.9125235 -3.3170929 1.91474915 C-4.93029922 1.93149437 -4.93029922 1.93149437 -6.57609558 1.94857788 C-7.97399464 1.95687402 -7.97399464 1.95687402 -9.40013409 1.96533775 C-12.24433982 2.25178151 -14.37427594 3.1294138 -16.9987793 4.22705078 C-20.3112793 4.35205078 -20.3112793 4.35205078 -22.9987793 4.22705078 C-23.3287793 3.56705078 -23.6587793 2.90705078 -23.9987793 2.22705078 C-15.92589059 0.44819829 -8.25070048 -0.0512613 0 0 Z " fill="#5AB3DA" transform="translate(212.998779296875,120.77294921875)"/>
<path d="M0 0 C-9.28993436 8.02635834 -23.96866747 7.58082833 -35.56640625 7.5390625 C-37.10002524 7.54900295 -38.63363233 7.56095666 -40.16722107 7.57479858 C-44.15472612 7.60677902 -48.14195701 7.6175202 -52.12957764 7.62164307 C-58.54054454 7.63048889 -64.9512912 7.66605987 -71.3620739 7.7138176 C-73.58559069 7.72631897 -75.80881941 7.72565401 -78.03236389 7.72354126 C-79.39861266 7.73012255 -80.76485948 7.73712901 -82.13110352 7.74462891 C-83.31607925 7.74588776 -84.50105499 7.74714661 -85.72193909 7.7484436 C-89.10968734 8.00841734 -91.83730356 8.78934729 -95 10 C-95 9.34 -95 8.68 -95 8 C-91.54138894 5.89214125 -88.79592572 5.7393295 -84.78198242 5.71289062 C-83.52355026 5.69947632 -82.2651181 5.68606201 -80.96855164 5.67224121 C-80.29863379 5.66967819 -79.62871593 5.66711517 -78.93849754 5.66447449 C-76.83156266 5.65615561 -74.72505507 5.63562178 -72.61824036 5.61193848 C-68.14139074 5.56378262 -63.66449803 5.53082952 -59.1875 5.5 C-54.00754291 5.46423777 -48.82779411 5.4221319 -43.64803505 5.36405945 C-41.58142357 5.34412101 -39.51497513 5.33569677 -37.44828796 5.32775879 C-31.2487368 5.26216732 -25.84838141 5.10828344 -20 3 C-17.77734375 2.91015625 -17.77734375 2.91015625 -15.9375 3.0625 C-9.98341785 2.96799076 -6.14841362 -0.4391724 0 0 Z " fill="#466DCE" transform="translate(299,257)"/>
<path d="M0 0 C0.78375 0.04125 1.5675 0.0825 2.375 0.125 C2.34047326 7.58277527 0.32013518 11.65932427 -4.625 17.125 C-5.28886719 17.91519531 -5.95273437 18.70539063 -6.63671875 19.51953125 C-12.0050423 25.48540607 -16.72477714 27.84029086 -24.625 29.125 C-23.7421875 27.16796875 -23.7421875 27.16796875 -22.625 25.125 C-20.75 24.4375 -20.75 24.4375 -18.625 24.125 C-15.67641896 23.5179392 -14.82552594 23.32552594 -12.625 21.125 C-12.3775 20.465 -12.13 19.805 -11.875 19.125 C-10.625 17.125 -10.625 17.125 -7.5625 16.125 C-6.593125 15.795 -5.62375 15.465 -4.625 15.125 C-3.218383 12.21799153 -3.58407335 11.24777995 -4.625 8.125 C-4.8125 5.0625 -4.8125 5.0625 -4.625 2.125 C-2.625 0.125 -2.625 0.125 0 0 Z " fill="#50CBEA" transform="translate(372.625,143.875)"/>
<path d="M0 0 C0.33 0 0.66 0 1 0 C1.18741152 9.04260581 0.58615679 18.00641128 -0.06201172 27.02026367 C-0.18667487 28.78902334 -0.3049099 30.55824857 -0.41650391 32.32788086 C-2.24088917 61.24088917 -2.24088917 61.24088917 -8 67 C-8.34721831 62.37042258 -7.44679485 59.28568271 -5.734375 55.1015625 C-4.57061294 51.77122214 -4.31291294 48.50462498 -4 45 C-4.66 45 -5.32 45 -6 45 C-6 44.01 -6 43.02 -6 42 C-5.34 42 -4.68 42 -4 42 C-4.020625 40.88625 -4.04125 39.7725 -4.0625 38.625 C-4 35 -4 35 -3 33 C-2.78638135 30.60847248 -2.6237448 28.23625664 -2.5 25.83984375 C-2.45939453 25.13477188 -2.41878906 24.42970001 -2.37695312 23.70326233 C-2.20300231 20.68168236 -2.03924222 17.65957212 -1.875 14.63745117 C-1.75377475 12.43385069 -1.62705994 10.23061423 -1.5 8.02734375 C-1.44682617 6.99455544 -1.44682617 6.99455544 -1.39257812 5.94090271 C-1.11286761 1.11286761 -1.11286761 1.11286761 0 0 Z " fill="#5859CB" transform="translate(193,286)"/>
<path d="M0 0 C-0.66386719 0.30292969 -1.32773438 0.60585937 -2.01171875 0.91796875 C-7.27983602 3.41744045 -10.9093055 5.79874619 -15 10 C-16.11375 10.433125 -17.2275 10.86625 -18.375 11.3125 C-27.58183227 15.59843916 -31.66105243 25.32210486 -36 34 C-36.66 34 -37.32 34 -38 34 C-33.6579291 19.67326366 -23.66512584 9.64169776 -10.89453125 2.41015625 C-2.93506494 -1.46753247 -2.93506494 -1.46753247 0 0 Z " fill="#06234A" transform="translate(182,186)"/>
<path d="M0 0 C0.33 0 0.66 0 1 0 C1 6.93 1 13.86 1 21 C1.66 21.33 2.32 21.66 3 22 C2.125 26.75 2.125 26.75 1 29 C0.34 29 -0.32 29 -1 29 C-1 36.92 -1 44.84 -1 53 C-1.66 53 -2.32 53 -3 53 C-3.22345329 41.07421514 -2.5429642 29.37392572 -1.5 17.5 C-1.35485587 15.79041651 -1.21032153 14.08078113 -1.06640625 12.37109375 C-0.71793194 8.24676661 -0.36132632 4.12322023 0 0 Z " fill="#101749" transform="translate(194,283)"/>
<path d="M0 0 C0.33 0 0.66 0 1 0 C1.19397476 1.97854258 1.38001321 3.9578648 1.5625 5.9375 C1.66691406 7.03964844 1.77132812 8.14179688 1.87890625 9.27734375 C1.91886719 10.17582031 1.95882812 11.07429688 2 12 C1.67 12.33 1.34 12.66 1 13 C0.96806537 16.27101896 1.06861816 19.5310408 1.16015625 22.80078125 C1.00272782 25.94551017 0.47877912 27.31971284 -1 30 C-1.03954234 32.33299825 -1.04401732 34.66708189 -1 37 C-1.495 37.495 -1.495 37.495 -2 38 C-2.3931648 39.67884238 -2.74085452 41.36850045 -3.0625 43.0625 C-3.23910156 43.98160156 -3.41570312 44.90070313 -3.59765625 45.84765625 C-3.73042969 46.55792969 -3.86320313 47.26820313 -4 48 C-4.91821614 44.97353724 -5.02359726 42.63931329 -4.65454102 39.50683594 C-4.55436172 38.62622498 -4.45418243 37.74561401 -4.35096741 36.83831787 C-4.23643723 35.89651672 -4.12190704 34.95471558 -4.00390625 33.984375 C-3.89151108 33.01340881 -3.77911591 32.04244263 -3.66331482 31.04205322 C-3.30311288 27.94387096 -2.93293645 24.84697357 -2.5625 21.75 C-2.31639902 19.64851448 -2.07094845 17.54695269 -1.82617188 15.4453125 C-1.22498958 10.29596641 -0.61561576 5.14763937 0 0 Z " fill="#5554C7" transform="translate(137,298)"/>
<path d="M0 0 C-0.33 0.66 -0.66 1.32 -1 2 C-3.31 2 -5.62 2 -8 2 C-8 2.66 -8 3.32 -8 4 C-14.41199226 6.89168279 -14.41199226 6.89168279 -17.375 7.4375 C-20.85463264 8.18313557 -23.82234728 9.70332893 -27.01171875 11.2578125 C-27.66785156 11.50273437 -28.32398438 11.74765625 -29 12 C-29.66 11.67 -30.32 11.34 -31 11 C-21.69933473 4.89053365 -11.44976269 -1.12252575 0 0 Z " fill="#4164D4" transform="translate(197,209)"/>
<path d="M0 0 C1.5747686 0.00424484 1.5747686 0.00424484 3.18135071 0.00857544 C6.49211659 0.0196552 9.80259892 0.04473621 13.11328125 0.0703125 C15.3756471 0.0803581 17.63801724 0.08948116 19.90039062 0.09765625 C25.4089488 0.11955435 30.91734476 0.15290774 36.42578125 0.1953125 C36.42578125 0.5253125 36.42578125 0.8553125 36.42578125 1.1953125 C35.55920647 1.20744278 35.55920647 1.20744278 34.67512512 1.21981812 C28.6564857 1.30594601 22.63817251 1.40545329 16.61987305 1.51269531 C14.37448612 1.55095329 12.12903856 1.58581171 9.88354492 1.6171875 C6.65391388 1.66290667 3.42469903 1.72089057 0.1953125 1.78125 C-0.8069487 1.79280121 -1.8092099 1.80435242 -2.84184265 1.81625366 C-3.78244034 1.83612335 -4.72303802 1.85599304 -5.69213867 1.87646484 C-6.51598557 1.88978851 -7.33983246 1.90311218 -8.18864441 1.9168396 C-10.91255684 2.23480739 -13.04727326 3.15599819 -15.57421875 4.1953125 C-18.88671875 4.3203125 -18.88671875 4.3203125 -21.57421875 4.1953125 C-21.90421875 3.5353125 -22.23421875 2.8753125 -22.57421875 2.1953125 C-14.96599409 0.55659652 -7.77181351 -0.08077702 0 0 Z " fill="#4E9ED3" transform="translate(211.57421875,120.8046875)"/>
<path d="M0 0 C0.66 0 1.32 0 2 0 C2 0.66 2 1.32 2 2 C2.66 2 3.32 2 4 2 C3.75 5.375 3.75 5.375 3 9 C0.9375 10.4375 0.9375 10.4375 -1 11 C-1 11.66 -1 12.32 -1 13 C-1.99 13 -2.98 13 -4 13 C-4 10.03 -4 7.06 -4 4 C-2.68 3.67 -1.36 3.34 0 3 C0 2.01 0 1.02 0 0 Z " fill="#2878ED" transform="translate(147,200)"/>
<path d="M0 0 C0.66 0.33 1.32 0.66 2 1 C1.67 2.32 1.34 3.64 1 5 C0.34 5 -0.32 5 -1 5 C-1.20625 5.556875 -1.4125 6.11375 -1.625 6.6875 C-3.51894524 9.87277155 -6.11676025 11.70517652 -9 14 C-10.01680311 14.98290968 -11.02738219 15.97334787 -12 17 C-12 16.34 -12 15.68 -12 15 C-12.99 14.67 -13.98 14.34 -15 14 C-13.04783565 12.04783565 -11.46800047 11.15173355 -9 10 C-9 9.34 -9 8.68 -9 8 C-8.34 8 -7.68 8 -7 8 C-6.67 6.68 -6.34 5.36 -6 4 C-4.35 3.67 -2.7 3.34 -1 3 C-0.67 2.01 -0.34 1.02 0 0 Z " fill="#51555E" transform="translate(259,302)"/>
<path d="M0 0 C0 0.33 0 0.66 0 1 C-0.94359375 1.15855469 -1.8871875 1.31710938 -2.859375 1.48046875 C-13.4182307 3.39929694 -22.79276819 6.28287411 -32 12 C-31.67 10.35 -31.34 8.7 -31 7 C-29.576875 6.87625 -29.576875 6.87625 -28.125 6.75 C-27.09375 6.5025 -26.0625 6.255 -25 6 C-24.53980469 5.00806641 -24.53980469 5.00806641 -24.0703125 3.99609375 C-23.54050781 3.00802734 -23.54050781 3.00802734 -23 2 C-21.046875 1.42578125 -21.046875 1.42578125 -18.75 1.3125 C-17.94175781 1.25835937 -17.13351563 1.20421875 -16.30078125 1.1484375 C-15.54152344 1.09945312 -14.78226563 1.05046875 -14 1 C-12.989375 0.814375 -11.97875 0.62875 -10.9375 0.4375 C-7.24332894 -0.11269569 -3.73350156 -0.06437072 0 0 Z " fill="#3581DD" transform="translate(195,182)"/>
<path d="M0 0 C0.99 0.66 1.98 1.32 3 2 C0.48826291 5.89319249 0.48826291 5.89319249 -2 6.4375 C-4.20536208 6.82936741 -4.20536208 6.82936741 -5.4375 9.0625 C-6.2109375 10.5165625 -6.2109375 10.5165625 -7 12 C-7.88711442 13.44289695 -8.78341039 14.88017825 -9.6875 16.3125 C-10.12449219 17.00988281 -10.56148437 17.70726562 -11.01171875 18.42578125 C-11.50091797 19.20501953 -11.50091797 19.20501953 -12 20 C-12.66 19.67 -13.32 19.34 -14 19 C-11.59310544 11.2979374 -5.71296811 5.44092201 0 0 Z " fill="#415ED1" transform="translate(163,222)"/>
<path d="M0 0 C0.33 0 0.66 0 1 0 C1 10.56 1 21.12 1 32 C1.99 32 2.98 32 4 32 C4 31.34 4 30.68 4 30 C4.66 30.33 5.32 30.66 6 31 C3 37 3 37 0 43 C0 28.81 0 14.62 0 0 Z " fill="#2F6CC5" transform="translate(142,181)"/>
<path d="M0 0 C1.32 0 2.64 0 4 0 C3.45817899 4.4396975 1.81894031 7.10893646 -0.8125 10.6875 C-1.49957031 11.64011719 -2.18664062 12.59273438 -2.89453125 13.57421875 C-4.88256089 15.86469446 -6.20823457 16.92720924 -9 18 C-9 17.01 -9 16.02 -9 15 C-8.01 15 -7.02 15 -6 15 C-5.9175 14.0925 -5.835 13.185 -5.75 12.25 C-4.90305826 8.57991912 -3.92092737 7.30133672 -1 5 C-0.34 5 0.32 5 1 5 C0.67 3.35 0.34 1.7 0 0 Z " fill="#6955DA" transform="translate(181,352)"/>
<path d="M0 0 C1.32005547 3.9601664 0.15926027 6.04487672 -1 10 C-1 10.928125 -1 11.85625 -1 12.8125 C-1 13.534375 -1 14.25625 -1 15 C-1.66 15.66 -2.32 16.32 -3 17 C-3.39764263 18.98821313 -3.73775349 20.98944339 -4 23 C-4.66 23 -5.32 23 -6 23 C-6.33 23.66 -6.66 24.32 -7 25 C-6.77645383 15.99718619 -4.01282454 8.02564907 0 0 Z " fill="#4458C6" transform="translate(148,241)"/>
<path d="M0 0 C0.9796875 0.00322266 1.959375 0.00644531 2.96875 0.00976562 C3.98453125 0.01814453 5.0003125 0.02652344 6.046875 0.03515625 C7.59375 0.04192383 7.59375 0.04192383 9.171875 0.04882812 C11.71360073 0.06059537 14.25520819 0.07703614 16.796875 0.09765625 C12.69748199 2.83058492 9.6092201 2.16531921 4.8046875 1.97265625 C1.65826039 2.10341686 -0.33615821 2.87099384 -3.203125 4.09765625 C-5.5352052 4.1741179 -7.87158378 4.18908924 -10.203125 4.09765625 C-9.873125 3.10765625 -9.543125 2.11765625 -9.203125 1.09765625 C-6.18786348 -0.08497373 -3.20756439 -0.01864863 0 0 Z " fill="#359AEC" transform="translate(206.203125,121.90234375)"/>
<path d="M0 0 C0.33 1.32 0.66 2.64 1 4 C0.38125 4.061875 -0.2375 4.12375 -0.875 4.1875 C-3.24121313 4.82421483 -3.24121313 4.82421483 -4.25 7.375 C-5.13736056 10.02575511 -5.13736056 10.02575511 -5 13 C-6.32 12.34 -7.64 11.68 -9 11 C-9.66 11.66 -10.32 12.32 -11 13 C-13.625 13.125 -13.625 13.125 -16 13 C-12.36433599 10.04602299 -8.64350969 7.23463648 -4.8671875 4.46484375 C-3.10158096 3.07969217 -1.5486808 1.62082431 0 0 Z " fill="#082337" transform="translate(365,163)"/>
<path d="M0 0 C0 0.66 0 1.32 0 2 C-0.70125 2.2475 -1.4025 2.495 -2.125 2.75 C-6.24991314 4.5434405 -9.8156188 6.8156188 -13 10 C-13.78375 10.144375 -14.5675 10.28875 -15.375 10.4375 C-18.27888042 11.05976009 -19.76340401 12.09475156 -22 14 C-22.66 13.67 -23.32 13.34 -24 13 C-19.23324404 8.95861995 -14.19434537 5.90395614 -8.625 3.125 C-8.00608887 2.8148999 -7.38717773 2.5047998 -6.74951172 2.18530273 C-2.27035043 0 -2.27035043 0 0 0 Z " fill="#3686D6" transform="translate(188,124)"/>
<path d="M0 0 C2.475 0.99 2.475 0.99 5 2 C4.75 3.875 4.75 3.875 4 6 C2.02 6.99 2.02 6.99 0 8 C-1.98 5.69 -3.96 3.38 -6 1 C-4.7934375 1.0309375 -4.7934375 1.0309375 -3.5625 1.0625 C-1.06645115 1.29633621 -1.06645115 1.29633621 0 0 Z " fill="#373B48" transform="translate(240,316)"/>
<path d="M0 0 C4.14581887 -0.02886751 8.29161216 -0.04675327 12.4375 -0.0625 C14.21350586 -0.07506836 14.21350586 -0.07506836 16.02539062 -0.08789062 C17.15009766 -0.09111328 18.27480469 -0.09433594 19.43359375 -0.09765625 C20.47572021 -0.10289307 21.51784668 -0.10812988 22.59155273 -0.11352539 C25 0 25 0 26 1 C25.91062197 2.52519276 25.75462854 4.04681929 25.5625 5.5625 C25.46066406 6.38878906 25.35882813 7.21507812 25.25390625 8.06640625 C25.17011719 8.70449219 25.08632813 9.34257812 25 10 C23.68 10.33 22.36 10.66 21 11 C21.375 8.5625 21.375 8.5625 22 6 C22.66 5.67 23.32 5.34 24 5 C24 4.01 24 3.02 24 2 C22.78376953 2.01740234 22.78376953 2.01740234 21.54296875 2.03515625 C14.29433826 2.09422542 7.20367799 1.80842879 0 1 C0 0.67 0 0.34 0 0 Z " fill="#57D6EC" transform="translate(358,122)"/>
<path d="M0 0 C0.78375 0.04125 1.5675 0.0825 2.375 0.125 C2.045 2.765 1.715 5.405 1.375 8.125 C0.715 8.125 0.055 8.125 -0.625 8.125 C-0.955 8.785 -1.285 9.445 -1.625 10.125 C-2.615 10.125 -3.605 10.125 -4.625 10.125 C-4.8203125 4.0703125 -4.8203125 4.0703125 -4.625 2.125 C-2.625 0.125 -2.625 0.125 0 0 Z " fill="#4BD9F7" transform="translate(372.625,143.875)"/>
<path d="M0 0 C1.98 0.99 1.98 0.99 4 2 C4.33 1.67 4.66 1.34 5 1 C6.66617115 0.95936168 8.33388095 0.957279 10 1 C9.67 1.99 9.34 2.98 9 4 C7.35 4.33 5.7 4.66 4 5 C3.67 6.65 3.34 8.3 3 10 C2.01 10 1.02 10 0 10 C0.52268466 7.23723823 1.10869587 4.6739124 2 2 C1.34 2 0.68 2 0 2 C0 1.34 0 0.68 0 0 Z " fill="#2980F6" transform="translate(160,184)"/>
<path d="M0 0 C-5.53731145 4.87283408 -12.38589244 5.31532282 -19.4375 5.625 C-20.16904297 5.66367187 -20.90058594 5.70234375 -21.65429688 5.7421875 C-23.43583532 5.83533984 -25.21788122 5.91870286 -27 6 C-23.18561163 4.0270405 -20.58545267 2.98080483 -16.1875 3.125 C-10.19245047 3.23459871 -6.19745995 -0.44267571 0 0 Z " fill="#4576E0" transform="translate(299,257)"/>
<path d="M0 0 C0.99 0.66 1.98 1.32 3 2 C2.195625 2.61875 1.39125 3.2375 0.5625 3.875 C-2.03874519 5.74164041 -2.03874519 5.74164041 -3 8 C-3.66 8 -4.32 8 -5 8 C-5 8.66 -5 9.32 -5 10 C-5.66 10 -6.32 10 -7 10 C-7 9.01 -7 8.02 -7 7 C-7.99 6.67 -8.98 6.34 -10 6 C-8.04783565 4.04783565 -6.46800047 3.15173355 -4 2 C-3.67 2.99 -3.34 3.98 -3 5 C-3 4.01 -3 3.02 -3 2 C-2.01 1.34 -1.02 0.68 0 0 Z " fill="#3E434F" transform="translate(275,287)"/>
<path d="M0 0 C-0.5775 0.31453125 -1.155 0.6290625 -1.75 0.953125 C-2.4925 1.38109375 -3.235 1.8090625 -4 2.25 C-4.7425 2.66765625 -5.485 3.0853125 -6.25 3.515625 C-7.11625 4.25039063 -7.11625 4.25039063 -8 5 C-8 6.32 -8 7.64 -8 9 C-9.65 9 -11.3 9 -13 9 C-13 8.34 -13 7.68 -13 7 C-13.66 6.67 -14.32 6.34 -15 6 C-13.75146327 5.20602761 -12.50109957 4.41492783 -11.25 3.625 C-10.20585938 2.96371094 -10.20585938 2.96371094 -9.140625 2.2890625 C-3.43693108 -1.14564369 -3.43693108 -1.14564369 0 0 Z " fill="#6C707D" transform="translate(81,30)"/>
<path d="M0 0 C0.99 0.33 1.98 0.66 3 1 C1.1875 3 1.1875 3 -1 5 C-1.99 5 -2.98 5 -4 5 C-3.67 6.98 -3.34 8.96 -3 11 C-3.66 11 -4.32 11 -5 11 C-5 10.34 -5 9.68 -5 9 C-6.32 9.33 -7.64 9.66 -9 10 C-7.64077101 5.10677564 -5.27472965 3.54664745 -1 1 C-0.67 0.67 -0.34 0.34 0 0 Z " fill="#2B8AF6" transform="translate(171,133)"/>
<path d="M0 0 C0.33 0 0.66 0 1 0 C1.23576736 7.62314474 0.83717315 14.58569409 -1 22 C-1.99 22.33 -2.98 22.66 -4 23 C-4 22.01 -4 21.02 -4 20 C-3.34 20 -2.68 20 -2 20 C-2.020625 18.88625 -2.04125 17.7725 -2.0625 16.625 C-2 13 -2 13 -1 11 C-0.7724985 9.12943209 -0.59037189 7.25314042 -0.4375 5.375 C-0.31181641 3.87066406 -0.31181641 3.87066406 -0.18359375 2.3359375 C-0.12300781 1.56507813 -0.06242188 0.79421875 0 0 Z " fill="#5D5CDE" transform="translate(191,308)"/>
<path d="M0 0 C0.66 0.66 1.32 1.32 2 2 C1.58427734 3.08667969 1.58427734 3.08667969 1.16015625 4.1953125 C-1.55621227 11.42755647 -1.55621227 11.42755647 -3 19 C-3.33 19 -3.66 19 -4 19 C-4.33 16.03 -4.66 13.06 -5 10 C-4.34 10 -3.68 10 -3 10 C-2.86722656 9.36191406 -2.73445312 8.72382813 -2.59765625 8.06640625 C-2.42105469 7.24011719 -2.24445313 6.41382813 -2.0625 5.5625 C-1.88847656 4.73878906 -1.71445313 3.91507813 -1.53515625 3.06640625 C-1 1 -1 1 0 0 Z " fill="#0A1944" transform="translate(145,243)"/>
<path d="M0 0 C1.0625 1.8125 1.0625 1.8125 2 4 C1.67 4.99 1.34 5.98 1 7 C1 8.32 1 9.64 1 11 C0.01 12.485 0.01 12.485 -1 14 C-1.39387788 16.32387947 -1.73486085 18.65793749 -2 21 C-2.33 21 -2.66 21 -3 21 C-3.21859211 14.98871706 -2.49689006 9.81274098 -1 4 C-0.81308594 3.25234375 -0.62617188 2.5046875 -0.43359375 1.734375 C-0.29050781 1.16203125 -0.14742187 0.5896875 0 0 Z " fill="#616774" transform="translate(28,85)"/>
<path d="M0 0 C0.33 0 0.66 0 1 0 C1.19401633 1.81181405 1.38004375 3.62448532 1.5625 5.4375 C1.66691406 6.44683594 1.77132812 7.45617187 1.87890625 8.49609375 C1.93884766 9.73552734 1.93884766 9.73552734 2 11 C1.67 11.33 1.34 11.66 1 12 C0.6068352 13.67884238 0.25914548 15.36850045 -0.0625 17.0625 C-0.23910156 17.98160156 -0.41570312 18.90070313 -0.59765625 19.84765625 C-0.73042969 20.55792969 -0.86320313 21.26820313 -1 22 C-1.89506817 19.03013448 -2.03315169 16.74360212 -1.66015625 13.671875 C-1.56669922 12.87265625 -1.47324219 12.0734375 -1.37695312 11.25 C-1.22129883 10.0125 -1.22129883 10.0125 -1.0625 8.75 C-0.96259766 7.90953125 -0.86269531 7.0690625 -0.75976562 6.203125 C-0.51295742 4.13463723 -0.25733716 2.06720428 0 0 Z " fill="#5D4EC1" transform="translate(134,324)"/>
<path d="M0 0 C0.66 0.33 1.32 0.66 2 1 C1.09066991 2.27609323 0.17217147 3.54565553 -0.75 4.8125 C-1.26046875 5.52019531 -1.7709375 6.22789062 -2.296875 6.95703125 C-4.02482358 9.02977691 -5.78526476 10.47375854 -8 12 C-8 10.68 -8 9.36 -8 8 C-6.68 7.67 -5.36 7.34 -4 7 C-3.8453125 6.0409375 -3.8453125 6.0409375 -3.6875 5.0625 C-3.460625 4.381875 -3.23375 3.70125 -3 3 C-2.01 2.67 -1.02 2.34 0 2 C0 1.34 0 0.68 0 0 Z " fill="#58CCE3" transform="translate(372,152)"/>
<path d="M0 0 C0 0.33 0 0.66 0 1 C-0.78246094 1.13277344 -1.56492188 1.26554687 -2.37109375 1.40234375 C-3.88896484 1.66724609 -3.88896484 1.66724609 -5.4375 1.9375 C-6.44683594 2.11152344 -7.45617187 2.28554687 -8.49609375 2.46484375 C-10.9287438 2.74751097 -10.9287438 2.74751097 -12 4 C-13.99958364 4.04080783 -16.00045254 4.04254356 -18 4 C-18.33 3.34 -18.66 2.68 -19 2 C-12.56971459 0.67611771 -6.5705166 -0.24794402 0 0 Z " fill="#3889CE" transform="translate(208,121)"/>
<path d="M0 0 C0.99 0 1.98 0 3 0 C2.52797514 4.24822374 0.03344482 6.19989709 -3 9 C-3 8.34 -3 7.68 -3 7 C-3.99 6.67 -4.98 6.34 -6 6 C-4.04783565 4.04783565 -2.46800047 3.15173355 0 2 C0 1.34 0 0.68 0 0 Z " fill="#3A3E4A" transform="translate(250,310)"/>
<path d="M0 0 C0.66 0.33 1.32 0.66 2 1 C0.68775452 4.93673644 -0.91910327 7.22719294 -4 10 C-4.33 9.01 -4.66 8.02 -5 7 C-4.00390625 5.17578125 -4.00390625 5.17578125 -2.5625 3.3125 C-2.08941406 2.68988281 -1.61632812 2.06726563 -1.12890625 1.42578125 C-0.75636719 0.95527344 -0.38382813 0.48476562 0 0 Z " fill="#4662E1" transform="translate(154,232)"/>
<path d="M0 0 C1.0859375 1.828125 1.0859375 1.828125 2 4 C0.625 6.75 0.625 6.75 -1 9 C-0.34 9.33 0.32 9.66 1 10 C0.01 10.99 -0.98 11.98 -2 13 C-3.1171875 11.296875 -3.1171875 11.296875 -4 9 C-3.3203125 6.640625 -3.3203125 6.640625 -2.125 4.25 C-1.73570312 3.45078125 -1.34640625 2.6515625 -0.9453125 1.828125 C-0.63335937 1.22484375 -0.32140625 0.6215625 0 0 Z " fill="#0F2042" transform="translate(326,224)"/>
<path d="M0 0 C0.66 0 1.32 0 2 0 C1.54901762 1.93922422 1.08894441 3.87633594 0.625 5.8125 C0.36976563 6.89144531 0.11453125 7.97039062 -0.1484375 9.08203125 C-1 12 -1 12 -3 15 C-3.33 13.02 -3.66 11.04 -4 9 C-3.67 9 -3.34 9 -3 9 C-2.67 7.35 -2.34 5.7 -2 4 C-1.34 4 -0.68 4 0 4 C0 2.68 0 1.36 0 0 Z " fill="#508ADE" transform="translate(327,214)"/>
<path d="M0 0 C0.33 0 0.66 0 1 0 C1 3.3 1 6.6 1 10 C0.34 10 -0.32 10 -1 10 C-1 11.98 -1 13.96 -1 16 C-1.66 16 -2.32 16 -3 16 C-2.40984815 10.49191603 -1.43336231 5.35121931 0 0 Z " fill="#091F40" transform="translate(330,208)"/>
<path d="M0 0 C1.98 1.65 3.96 3.3 6 5 C4.68 5.99 3.36 6.98 2 8 C2 7.01 2 6.02 2 5 C0.68 4.67 -0.64 4.34 -2 4 C-1.34 2.68 -0.68 1.36 0 0 Z " fill="#535761" transform="translate(227,328)"/>
<path d="M0 0 C1.32005547 3.9601664 0.15926027 6.04487672 -1 10 C-0.979375 10.928125 -0.95875 11.85625 -0.9375 12.8125 C-0.958125 13.534375 -0.97875 14.25625 -1 15 C-1.99 15.66 -2.98 16.32 -4 17 C-3.67373505 10.67721029 -3.38495108 5.44535609 0 0 Z " fill="#4660DD" transform="translate(148,241)"/>
<path d="M0 0 C0.598125 0.350625 1.19625 0.70125 1.8125 1.0625 C1.4825 2.0525 1.1525 3.0425 0.8125 4.0625 C-1.125 4.875 -1.125 4.875 -3.1875 5.0625 C-3.8475 4.4025 -4.5075 3.7425 -5.1875 3.0625 C-5.1875 2.0725 -5.1875 1.0825 -5.1875 0.0625 C-2.1875 -0.9375 -2.1875 -0.9375 0 0 Z " fill="#7750F2" transform="translate(165.1875,369.9375)"/>
<path d="M0 0 C1.32 0.33 2.64 0.66 4 1 C2.35 4.3 0.7 7.6 -1 11 C-1.97608217 8.07175348 -2.08226668 6.04386724 -2 3 C-1.34 3 -0.68 3 0 3 C0 2.01 0 1.02 0 0 Z " fill="#0A2044" transform="translate(148,152)"/>
<path d="M0 0 C0.99 0.33 1.98 0.66 3 1 C3 1.66 3 2.32 3 3 C2.34 3 1.68 3 1 3 C1 4.65 1 6.3 1 8 C0.01 8.495 0.01 8.495 -1 9 C-3 6 -3 6 -2.75 3.375 C-2.5025 2.59125 -2.255 1.8075 -2 1 C-1.34 0.67 -0.68 0.34 0 0 Z M-1 3 C0 5 0 5 0 5 Z " fill="#2881F2" transform="translate(151,159)"/>
<path d="M0 0 C0.66 0.33 1.32 0.66 2 1 C1.67 1.66 1.34 2.32 1 3 C2.32 3.33 3.64 3.66 5 4 C2.69 5.65 0.38 7.3 -2 9 C-2.33 8.34 -2.66 7.68 -3 7 C-2.34 6.67 -1.68 6.34 -1 6 C-1.0309375 4.7934375 -1.0309375 4.7934375 -1.0625 3.5625 C-1 1 -1 1 0 0 Z " fill="#09213E" transform="translate(164,130)"/>
<path d="M0 0 C3.63 0 7.26 0 11 0 C6.74582052 2.12708974 3.71473296 3 -1 3 C-0.67 2.01 -0.34 1.02 0 0 Z " fill="#2D98F6" transform="translate(197,123)"/>
<path d="M0 0 C0 2.83967231 -0.40267181 5.23735711 -1 8 C-2.98 8.66 -4.96 9.32 -7 10 C-5.33248852 6.05860922 -2.77289351 3.2107188 0 0 Z " fill="#828691" transform="translate(48,51)"/>
<path d="M0 0 C1.32 0.33 2.64 0.66 4 1 C4.625 3.3125 4.625 3.3125 5 6 C4.01 7.485 4.01 7.485 3 9 C2.01 6.03 1.02 3.06 0 0 Z " fill="#636670" transform="translate(29,408)"/>
<path d="M0 0 C0.66 0 1.32 0 2 0 C2.28571429 7.42857143 2.28571429 7.42857143 0 11 C-0.33 11 -0.66 11 -1 11 C-1.125 3.375 -1.125 3.375 0 0 Z " fill="#6356E7" transform="translate(136,317)"/>
<path d="M0 0 C0.33 0 0.66 0 1 0 C1.22245393 1.60226955 1.42746669 3.20696767 1.625 4.8125 C1.74101562 5.70582031 1.85703125 6.59914063 1.9765625 7.51953125 C2 10 2 10 0 13 C-1.18306728 10.63386544 -1.13354608 9.13219264 -1.125 6.5 C-1.12757813 5.7059375 -1.13015625 4.911875 -1.1328125 4.09375 C-1 2 -1 2 0 0 Z " fill="#4E61E2" transform="translate(142,264)"/>
<path d="M0 0 C0.66 0.33 1.32 0.66 2 1 C1.47599609 1.93972656 1.47599609 1.93972656 0.94140625 2.8984375 C0.48636719 3.71570313 0.03132812 4.53296875 -0.4375 5.375 C-0.88996094 6.18710938 -1.34242188 6.99921875 -1.80859375 7.8359375 C-2.5650536 9.20996622 -3.29854631 10.59709261 -4 12 C-4.66 12 -5.32 12 -6 12 C-4.68139111 7.38486888 -2.78644563 3.90102388 0 0 Z " fill="#051D45" transform="translate(150,208)"/>
<path d="M0 0 C0.99 0.33 1.98 0.66 3 1 C1.8758824 2.29243468 0.75067408 3.58392075 -0.375 4.875 C-1.00148437 5.59429687 -1.62796875 6.31359375 -2.2734375 7.0546875 C-3.47426834 8.4076598 -4.7208345 9.7208345 -6 11 C-5.17857636 6.56431237 -3.17658845 3.17658845 0 0 Z " fill="#041F47" transform="translate(159,139)"/>
<path d="M0 0 C0.66 0.33 1.32 0.66 2 1 C1.04882866 2.1725131 0.08882991 3.33787015 -0.875 4.5 C-1.40867188 5.1496875 -1.94234375 5.799375 -2.4921875 6.46875 C-2.98976562 6.9740625 -3.48734375 7.479375 -4 8 C-4.66 8 -5.32 8 -6 8 C-6 7.01 -6 6.02 -6 5 C-5.01 5 -4.02 5 -3 5 C-3 4.01 -3 3.02 -3 2 C-2.01 1.34 -1.02 0.68 0 0 Z " fill="#6550C5" transform="translate(178,362)"/>
<path d="M0 0 C0.66 0 1.32 0 2 0 C0.515 5.445 0.515 5.445 -1 11 C-1.66 10.67 -2.32 10.34 -3 10 C-3.3636198 5.75776898 -2.5393228 3.41831915 0 0 Z " fill="#445ED1" transform="translate(196,272)"/>
<path d="M0 0 C1.67542976 0.28604898 3.34385343 0.61781233 5 1 C5 1.66 5 2.32 5 3 C2.36 3.66 -0.28 4.32 -3 5 C-1.125 1.125 -1.125 1.125 0 0 Z " fill="#40CFF4" transform="translate(351,168)"/>
<path d="M0 0 C1.21236328 0.02707031 1.21236328 0.02707031 2.44921875 0.0546875 C3.37154297 0.08949219 3.37154297 0.08949219 4.3125 0.125 C3.6525 1.445 2.9925 2.765 2.3125 4.125 C1.6525 4.125 0.9925 4.125 0.3125 4.125 C0.3125 3.465 0.3125 2.805 0.3125 2.125 C-2.3275 2.125 -4.9675 2.125 -7.6875 2.125 C-4.48369983 -0.01086678 -3.66810033 -0.10632175 0 0 Z " fill="#656B79" transform="translate(98.6875,23.875)"/>
<path d="M0 0 C-0.33 1.32 -0.66 2.64 -1 4 C-2.9375 3.6875 -2.9375 3.6875 -5 3 C-5.33 2.01 -5.66 1.02 -6 0 C-3 -1 -3 -1 0 0 Z " fill="#7552ED" transform="translate(172,368)"/>
<path d="M0 0 C-0.33 0.99 -0.66 1.98 -1 3 C-2.65 3.33 -4.3 3.66 -6 4 C-2.25 0 -2.25 0 0 0 Z M-7 4 C-6.67 4.66 -6.34 5.32 -6 6 C-7.98 6 -9.96 6 -12 6 C-12 5.67 -12 5.34 -12 5 C-10.35 4.67 -8.7 4.34 -7 4 Z " fill="#0A2034" transform="translate(349,176)"/>
<path d="M0 0 C0.66 0.33 1.32 0.66 2 1 C-0.13478166 4.20217249 -1.62795029 5.27285259 -5 7 C-5.99 7 -6.98 7 -8 7 C-5.36 4.69 -2.72 2.38 0 0 Z " fill="#A3A6B0" transform="translate(61,39)"/>
<path d="M0 0 C0.66 0.33 1.32 0.66 2 1 C2 2.98 2 4.96 2 7 C1.01 7 0.02 7 -1 7 C-1.625 5.1875 -1.625 5.1875 -2 3 C-1.34 2.01 -0.68 1.02 0 0 Z " fill="#4992F6" transform="translate(322,224)"/>
<path d="M0 0 C1.32 0 2.64 0 4 0 C4.33 0.99 4.66 1.98 5 3 C4.01 4.485 4.01 4.485 3 6 C2.67 5.01 2.34 4.02 2 3 C1.34 3 0.68 3 0 3 C0 2.01 0 1.02 0 0 Z " fill="#555864" transform="translate(46,436)"/>
<path d="M0 0 C2.31 0.33 4.62 0.66 7 1 C6.13375 1.37125 6.13375 1.37125 5.25 1.75 C2.6997003 3.16683317 0.98214299 4.87627537 -1 7 C-0.67 4.69 -0.34 2.38 0 0 Z " fill="#696D76" transform="translate(216,306)"/>
<path d="M0 0 C0.99 0.99 1.98 1.98 3 3 C2.67 3.99 2.34 4.98 2 6 C1.34 6 0.68 6 0 6 C0 6.99 0 7.98 0 9 C-0.66 8.67 -1.32 8.34 -2 8 C-1.34 5.36 -0.68 2.72 0 0 Z " fill="#297AF8" transform="translate(153,193)"/>
<path d="M0 0 C0.33 1.32 0.66 2.64 1 4 C-1.375 5.5625 -1.375 5.5625 -4 7 C-4.66 6.67 -5.32 6.34 -6 6 C-4.02 4.02 -2.04 2.04 0 0 Z " fill="#062D3D" transform="translate(365,163)"/>
<path d="M0 0 C0 3 0 3 -2 5.1875 C-2.66 5.785625 -3.32 6.38375 -4 7 C-4 4 -4 4 -3 1 C-2.01 0.67 -1.02 0.34 0 0 Z " fill="#787A83" transform="translate(462,424)"/>
<path d="M0 0 C0.33 0 0.66 0 1 0 C1 1.65 1 3.3 1 5 C-0.65 5.33 -2.3 5.66 -4 6 C-2.84826645 3.53199953 -1.95216435 1.95216435 0 0 Z " fill="#6D51E8" transform="translate(180,357)"/>
<path d="M0 0 C2 3 2 3 2 6 C0.68 5.34 -0.64 4.68 -2 4 C-2 3.01 -2 2.02 -2 1 C-1.34 0.67 -0.68 0.34 0 0 Z " fill="#2A303C" transform="translate(261,298)"/>
<path d="M0 0 C2.97 0.495 2.97 0.495 6 1 C4 4 4 4 1.875 4.6875 C1.25625 4.790625 0.6375 4.89375 0 5 C0 3.35 0 1.7 0 0 Z " fill="#2E7DE6" transform="translate(156,193)"/>
<path d="M0 0 C0.66 0 1.32 0 2 0 C2 1.32 2 2.64 2 4 C-1 6.25 -1 6.25 -4 8 C-2.87548273 5.0280615 -1.77706209 2.66559313 0 0 Z " fill="#2A84F0" transform="translate(157,146)"/>
<path d="M0 0 C2.96175123 0.61277612 4.38058783 1.25372522 7 3 C4.69 3.33 2.38 3.66 0 4 C0 2.68 0 1.36 0 0 Z " fill="#5E626C" transform="translate(411,26)"/>
</svg>
